<?xml version="1.0" encoding="UTF-8"?>
<!DOCTYPE svg PUBLIC "-//W3C//DTD SVG 1.1//EN" "http://www.w3.org/Graphics/SVG/1.1/DTD/svg11.dtd">
<!-- Creator: CorelDRAW X8 -->
<svg xmlns="http://www.w3.org/2000/svg" xml:space="preserve" width="157.794mm" height="52.0684mm" version="1.1" style="shape-rendering:geometricPrecision; text-rendering:geometricPrecision; image-rendering:optimizeQuality; fill-rule:evenodd; clip-rule:evenodd"
viewBox="0 0 574291 189503"
 xmlns:xlink="http://www.w3.org/1999/xlink">
 <defs>
  <style type="text/css">
   <![CDATA[
    .str0 {stroke:#333333;stroke-width:277.33}
    .fil0 {fill:black}
    .fil3 {fill:#1F1B20}
    .fil2 {fill:#FED700}
    .fil5 {fill:#2B2A29;fill-rule:nonzero}
    .fil6 {fill:#FED700;fill-rule:nonzero}
    .fil1 {fill:black;fill-opacity:0.200000}
    .fil4 {fill:white;fill-opacity:0.200000}
   ]]>
  </style>
 </defs>
 <g id="Слой_x0020_1">
  <metadata id="CorelCorpID_0Corel-Layer"/>
  <path class="fil0" d="M64656 71135c-2243,-2895 -5382,-4811 -9460,-5790 -10112,-3385 -16432,-10724 -18960,-22019 529,-4281 6116,-5545 611,-8929 -3384,-82 -5994,1590 -7910,4974 -5709,10235 -2895,20306 4607,28624 3670,4119 8644,8074 14883,11947 1509,408 2936,-652 4241,-3098 2691,-4200 5586,-4404 8726,-612l3262 -5097 0 0zm-7666 17737c-3384,-1386 -7054,-1468 -11050,-326 -10479,2120 -19612,-1060 -27441,-9582 -1713,-3955 2528,-7870 -3914,-7992 -2977,1590 -4445,4363 -4363,8237 163,11702 7625,19041 18308,22507 5219,1672 11498,2651 18838,2855 1508,-408 2242,-1998 2120,-4812 245,-4933 2650,-6565 7258,-4852l245 -6035 -1 0zm2243 19165c-3589,489 -6850,2242 -9705,5260 -8032,7095 -17533,8889 -28583,5423 -3425,-2569 -1712,-8073 -7380,-4974 -1794,2894 -1672,5994 326,9337 5994,10031 16147,12640 27116,10316 5382,-1142 11294,-3466 17737,-6932 1141,-1101 938,-2854 -571,-5219 -2283,-4404 -979,-7014 3874,-7870l-2814 -5341 0 0zm11539 15494c-2895,2243 -4811,5383 -5790,9420 -3385,10112 -10724,16432 -22018,18960 -4282,-489 -5546,-6116 -8890,-571 -81,3344 1550,5994 4975,7870 10194,5708 20265,2895 28624,-4608 4078,-3669 8033,-8644 11906,-14882 408,-1509 -611,-2936 -3099,-4241 -4199,-2650 -4403,-5586 -570,-8726l-5138 -3221 0 -1zm17737 7625c-1386,3385 -1467,7095 -326,11091 2121,10438 -1060,19613 -9582,27401 -3955,1712 -7829,-2488 -7992,3955 1590,2936 4363,4404 8237,4363 11702,-163 19042,-7665 22507,-18308 1713,-5219 2651,-11539 2855,-18838 -367,-1549 -1998,-2242 -4811,-2120 -4934,-245 -6565,-2692 -4853,-7299l-6035 -245 0 0zm19165 -2242c489,3629 2242,6849 5260,9745 7095,7992 8889,17533 5423,28542 -2569,3466 -8073,1754 -4974,7421 2895,1754 5994,1632 9337,-366 10031,-5954 12640,-16107 10316,-27075 -1142,-5382 -3425,-11295 -6932,-17778 -1101,-1101 -2854,-938 -5219,571 -4404,2283 -7013,978 -7829,-3874l-5382 2814zm15494 -11540c2243,2895 5383,4812 9420,5831 10112,3384 16473,10724 18960,22018 -489,4282 -6116,5505 -571,8890 3344,81 5995,-1591 7911,-4975 5708,-10194 2854,-20306 -4649,-28624 -3669,-4078 -8644,-8074 -14882,-11907 -1509,-407 -2895,612 -4241,3099 -2650,4160 -5586,4363 -8726,571l-3221 5097 -1 0zm7625 -17697c3385,1346 7096,1469 11091,286 10439,-2120 19613,1060 27442,9582 1672,3956 -2528,7870 3914,8033 2977,-1631 4404,-4363 4364,-8277 -164,-11703 -7666,-19001 -18309,-22467 -5219,-1713 -11498,-2692 -18838,-2896 -1549,408 -2242,1999 -2120,4812 -245,4974 -2650,6564 -7299,4852l-245 6075zm-2242 -19204c3629,-490 6891,-2243 9745,-5261 7992,-7054 17533,-8889 28542,-5423 3466,2610 1754,8074 7422,4975 1753,-2855 1630,-5994 -367,-9338 -5954,-10031 -16107,-12640 -27075,-10316 -5382,1142 -11295,3466 -17778,6932 -1101,1101 -897,2855 571,5220 2283,4444 1019,7054 -3874,7869l2814 5342zm-11540 -15454c2895,-2243 4853,-5382 5831,-9460 3385,-10112 10724,-16433 22018,-18961 4282,531 5546,6117 8890,612 81,-3385 -1591,-5994 -4975,-7910 -10194,-5709 -20306,-2895 -28624,4607 -4078,3670 -8074,8645 -11906,14883 -408,1509 611,2936 3099,4240 4199,2692 4363,5587 570,8726l5097 3263 0 0zm-17696 -7666c1345,-3384 1467,-7054 285,-11050 -2120,-10479 1101,-19612 9582,-27441 3956,-1713 7870,2528 8033,-3956 -1631,-2935 -4363,-4403 -8277,-4322 -11662,122 -19002,7625 -22468,18267 -1712,5261 -2649,11540 -2894,18879 407,1509 1998,2202 4811,2121 4975,203 6605,2650 4852,7258l6076 244zm-19205 2243c-490,-3588 -2243,-6850 -5260,-9745 -7055,-7992 -8848,-17493 -5424,-28543 2610,-3425 8074,-1753 4975,-7421 -2855,-1754 -5994,-1631 -9338,367 -10031,5994 -12640,16147 -10315,27115 1141,5382 3465,11295 6931,17737 1142,1142 2855,938 5260,-570 4404,-2284 7013,-979 7829,3873l5342 -2813z"/>
  <path class="fil1" d="M572840 75616l-321145 0 0 46292 321145 0 0 -46292zm-317685 11799l0 4650 11831 0 0 23216 5655 0 0 -23216 11943 0 0 -4650 -29429 0 0 0zm33930 27866l27754 0 0 -4353 -22099 0 0 -7738 21429 0 0 -3944 -21429 0 0 -7478 22099 0 0 -4353 -27754 0 0 27866zm41148 -27866l-7664 0 12537 13542 -14063 14324 8371 0 10269 -11719 10268 11719 8371 0 -14063 -14324 12538 -13542 -7664 0 -9450 10863 -9450 -10863zm32404 27866l5656 0 0 -8557 13133 0c1786,0 3795,-223 5432,-1005 1339,-632 2269,-1637 2901,-3013 782,-1711 968,-3832 968,-5692 0,-1488 -112,-3125 -521,-4576 -335,-1042 -819,-2046 -1600,-2865 -781,-781 -1748,-1302 -2828,-1600 -1376,-409 -2976,-558 -4427,-558l-18714 0 0 27866 0 0zm5656 -13208l0 -10008 11830 0c1340,0 2977,224 3870,1266 892,967 1078,2418 1078,3683 0,930 -74,1935 -409,2790 -335,782 -893,1377 -1637,1749 -855,409 -1935,520 -2902,520l-11830 0zm27419 13208l27791 0 0 -4353 -22136 0 0 -7738 21429 0 0 -3944 -21429 0 0 -7478 22136 0 0 -4353 -27791 0 0 27866zm65256 -8966l-5916 0c-37,818 -149,1711 -558,2418 -409,744 -1078,1265 -1897,1488 -1004,298 -2232,372 -3274,372l-8706 0c-1078,0 -2343,-74 -3385,-446 -930,-335 -1600,-968 -2009,-1824 -484,-1041 -596,-2418 -596,-3571l0 -7143c0,-1079 38,-2567 447,-3572 372,-855 1042,-1413 1935,-1674 1079,-335 2530,-372 3646,-372l8706 0c1376,0 3162,186 4278,1079 967,744 1302,1935 1377,3088l5915 0c-37,-1748 -335,-3720 -1228,-5246 -781,-1339 -1935,-2269 -3385,-2753 -1823,-632 -3906,-818 -5841,-818l-11124 0c-1972,0 -4502,149 -6399,855 -1377,558 -2381,1489 -2977,2865 -818,1823 -1004,4316 -1004,6288l0 8222c0,1860 149,4129 893,5878 595,1376 1525,2306 2901,2864 1749,782 4055,931 5953,931l12575 0c1897,0 4390,-149 6176,-856 1302,-521 2195,-1414 2716,-2716 595,-1562 743,-3609 781,-5357l0 0zm29577 -18900l-9264 16890 -9785 -16890 -6622 0 12538 19569c260,484 558,1042 558,1637 0,2121 -2940,2307 -4465,2307l-781 0 0 4353 2083 0c1041,0 2158,-37 3199,-261 744,-149 1414,-409 2046,-855 744,-521 1377,-1228 1935,-1935 930,-1228 1786,-2567 2605,-3869l12649 -20946 -6697 0 1 0zm11533 27866l5655 0 0 -8557 13133 0c1786,0 3795,-223 5432,-1005 1340,-632 2270,-1637 2902,-3013 782,-1711 968,-3832 968,-5692 0,-1488 -112,-3125 -521,-4576 -335,-1042 -819,-2046 -1600,-2865 -782,-781 -1749,-1302 -2828,-1600 -1413,-409 -2976,-558 -4427,-558l-18714 0 0 27866 0 0zm5655 -13208l0 -10008 11831 0c1302,0 2977,224 3869,1266 893,967 1079,2418 1079,3683 0,930 -74,1935 -409,2790 -335,782 -893,1377 -1637,1749 -893,409 -1935,520 -2902,520l-11831 0zm58708 4242l-5915 0c-37,818 -186,1711 -558,2418 -447,744 -1079,1265 -1935,1488 -1004,298 -2232,372 -3274,372l-8669 0c-1078,0 -2381,-74 -3423,-446 -892,-335 -1562,-968 -1971,-1824 -521,-1041 -633,-2418 -633,-3571l0 -7143c0,-1079 74,-2567 484,-3572 335,-855 1004,-1413 1897,-1674 1116,-335 2530,-372 3683,-372l8669 0c1413,0 3162,186 4315,1079 931,744 1303,1935 1377,3088l5915 0c-74,-1748 -335,-3720 -1227,-5246 -819,-1339 -1935,-2269 -3386,-2753 -1823,-632 -3944,-818 -5841,-818l-11124 0c-2009,0 -4502,149 -6399,855 -1414,558 -2381,1489 -3014,2865 -781,1823 -967,4316 -1004,6288l0 8222c0,1860 186,4129 930,5878 558,1376 1526,2306 2865,2864 1786,782 4092,931 5953,931l12612 0c1897,0 4390,-149 6176,-856 1265,-521 2195,-1414 2678,-2716 633,-1562 782,-3609 819,-5357zm-500185 -32895c-2230,-2777 -5315,-4623 -9292,-5578 -10112,-3385 -16433,-10724 -18961,-22019 530,-4281 6116,-5545 612,-8929 -3385,-82 -5994,1590 -7910,4974 -5709,10235 -2896,20306 4607,28624 3670,4119 8644,8074 14883,11947 1508,408 2935,-652 4240,-3098 2616,-4083 5425,-4389 8464,-920 -2191,3906 -3703,8244 -4378,12854 -3318,-1295 -6910,-1347 -10813,-232 -10479,2121 -19613,-1060 -27441,-9582 -1713,-3955 2528,-7870 -3915,-7992 -2976,1590 -4444,4363 -4363,8237 163,11702 7625,19042 18308,22507 5220,1672 11499,2651 18838,2855 1509,-408 2243,-1998 2121,-4812 237,-4794 2516,-6469 6873,-4989 63,4692 984,9177 2619,13304 -3490,536 -6664,2276 -9452,5223 -8033,7095 -17533,8889 -28583,5423 -3425,-2569 -1713,-8073 -7381,-4974 -1793,2895 -1671,5994 327,9337 5994,10031 16147,12640 27115,10316 5382,-1142 11295,-3466 17737,-6932 1142,-1101 938,-2854 -570,-5219 -2217,-4276 -1051,-6860 3460,-7791 2343,3929 5383,7393 8950,10223 -2790,2233 -4644,5322 -5602,9271 -3384,10112 -10723,16432 -22018,18960 -4281,-489 -5545,-6116 -8889,-571 -81,3344 1549,5994 4975,7870 10193,5708 20265,2895 28624,-4608 4077,-3669 8033,-8644 11906,-14882 408,-1509 -611,-2936 -3099,-4241 -4076,-2572 -4388,-5413 -899,-8449 3901,2185 8231,3692 12832,4366 -1294,3320 -1345,6949 -230,10851 2120,10438 -1061,19613 -9582,27401 -3956,1712 -7829,-2488 -7992,3955 1590,2936 4363,4404 8236,4363 11703,-163 19042,-7665 22508,-18308 1713,-5219 2650,-11539 2855,-18838 -368,-1549 -1998,-2242 -4812,-2120 -4793,-238 -6469,-2554 -4990,-6912 4693,-62 9178,-984 13305,-2618 536,3524 2276,6662 5223,9489 7095,7992 8889,17533 5423,28542 -2569,3466 -8074,1754 -4975,7421 2895,1754 5994,1632 9338,-366 10030,-5954 12640,-16107 10316,-27075 -1142,-5382 -3425,-11295 -6932,-17778 -1101,-1101 -2854,-938 -5219,571 -4282,2219 -6867,1048 -7757,-3477 3222,-1926 6130,-4321 8631,-7091l3308 0c2011,1785 4517,3041 7520,3799 10112,3384 16473,10724 18961,22018 -489,4282 -6116,5505 -571,8890 3344,81 5994,-1591 7910,-4975 5709,-10194 2855,-20306 -4648,-28624 -333,-370 -676,-739 -1031,-1108l24209 0c-4167,13952 -11794,26452 -21839,36535 -15775,15774 -37577,25522 -61685,25522 -24071,0 -45872,-9748 -61647,-25522 -15774,-15812 -25559,-37614 -25559,-61685 0,-24071 9785,-45872 25559,-61647 15775,-15774 37576,-25559 61647,-25559 24109,0 45910,9785 61685,25559l-1 0c10976,11013 19086,24927 22955,40516l-3483 0c851,-2403 466,-4984 -1157,-7699 -5953,-10031 -16106,-12640 -27075,-10316 -5382,1142 -11294,3466 -17777,6932 -1101,1101 -898,2855 571,5220 1315,2560 1453,4512 397,5863l-5087 0c-2136,-3132 -4734,-5922 -7696,-8276 2778,-2230 4663,-5314 5617,-9290 3384,-10112 10724,-16433 22018,-18961 4282,531 5546,6117 8889,612 82,-3384 -1590,-5994 -4974,-7910 -10194,-5709 -20306,-2895 -28625,4607 -4077,3670 -8073,8645 -11906,14883 -407,1509 612,2936 3099,4240 4082,2616 4350,5424 881,8462 -3897,-2185 -8222,-3694 -12819,-4371 1260,-3320 1350,-6913 195,-10818 -2120,-10479 1101,-19612 9582,-27441 3956,-1713 7870,2528 8033,-3956 -1631,-2935 -4363,-4403 -8277,-4322 -11662,122 -19002,7625 -22468,18267 -1712,5261 -2650,11540 -2895,18879 408,1509 1998,2202 4812,2121 4834,198 6510,2513 4992,6873 -4694,63 -9180,985 -13306,2620 -536,-3489 -2277,-6666 -5224,-9493 -7054,-7992 -8848,-17493 -5423,-28543 2610,-3425 8074,-1753 4975,-7421 -2855,-1754 -5994,-1631 -9338,367 -10031,5994 -12640,16147 -10316,27115 1142,5382 3466,11295 6932,17737 1141,1142 2854,938 5260,-570 4276,-2218 6860,-1052 7753,3460 -3920,2338 -7378,5370 -10204,8927zm76431 2202c7431,-5299 16090,-6430 25919,-3336 1226,923 1804,2203 2290,3336l-28209 0zm-47026 -71618c25634,0 48812,10380 65591,27159 12017,12017 20760,27345 24741,44459l64365 0 -2 -1456 323935 0 0 49193 -323935 0 -1 -1456 -65367 0c-4353,15477 -12649,29354 -23736,40441 -16779,16779 -39957,27159 -65591,27159 -25596,0 -48774,-10380 -65553,-27159 -16817,-16779 -27196,-39957 -27196,-65591 0,-25596 10379,-48774 27196,-65591 16779,-16779 39957,-27159 65553,-27159l0 1z"/>
  <circle class="fil2" cx="93894" cy="94256" r="37539"/>
  <path class="fil0" d="M571073 73119l-321146 0 0 46292 321146 0 0 -46292zm-477179 -71612c25633,0 48811,10380 65590,27159 12017,12017 20760,27345 24741,44458l64365 0 -2 -1455 323936 0 0 49193 -323936 0 0 -1456 -65368 0c-4352,15477 -12649,29354 -23736,40441 -16779,16779 -39957,27159 -65590,27159 -25597,0 -48775,-10380 -65554,-27159 -16816,-16779 -27196,-39957 -27196,-65591 0,-25596 10380,-48774 27196,-65591 16779,-16779 39957,-27159 65554,-27159l0 1zm61684 31102c-15775,-15774 -37576,-25559 -61684,-25559 -24071,0 -45873,9785 -61647,25559 -15775,15775 -25559,37576 -25559,61647 0,24071 9784,45873 25559,61685 15774,15774 37576,25521 61647,25521 24108,0 45909,-9747 61684,-25521 10045,-10083 17672,-22583 21839,-36535l-82891 0 0 -46282 84007 0c-3869,-15588 -11980,-29502 -22955,-40515l0 0z"/>
  <path class="fil2" d="M101521 112784l32330 0 0 -5544 -25596 0 0 -9189 24778 0 0 -5060 -24778 0 0 -8817 25596 0 0 -5543 -32330 0 0 34153 0 0zm38096 0l21690 0c1749,0 3646,-186 5246,-819 1265,-484 2270,-1302 2902,-2455 781,-1414 967,-3126 967,-4688 0,-1302 -112,-3125 -1004,-4204 -819,-1005 -2121,-1637 -3312,-2009l-1600 -558 1600 -521c968,-298 1935,-781 2493,-1674 633,-1004 707,-3051 707,-4204 0,-1376 -223,-2790 -1042,-3906 -744,-1079 -1823,-1712 -3050,-2121 -1675,-558 -3572,-707 -5321,-707l-20276 0 0 27866 0 0zm5804 -23513l14659 0c930,0 1860,261 2567,930 669,707 930,1600 930,2530 0,1005 -223,2009 -893,2791 -670,781 -1562,1116 -2567,1116l-14695 0 0 -7367 -1 0zm0 11422l14696 0c855,0 1972,37 2790,372 633,260 1154,669 1414,1302 260,632 298,1451 298,2120 0,744 -38,1600 -335,2270 -261,670 -819,1079 -1526,1339 -855,261 -2009,335 -2901,335l-14436 0 0 -7738 0 0zm31363 12091l5804 0 0 -8557 13468 0c1823,0 3869,-223 5543,-1005 1377,-632 2344,-1637 2977,-3013 781,-1711 1004,-3832 1004,-5692 0,-1489 -111,-3126 -558,-4576 -297,-1042 -818,-2046 -1637,-2865 -781,-781 -1786,-1302 -2864,-1600 -1451,-409 -3051,-558 -4539,-558l-19197 0 0 27866 -1 0zm5804 -13208l0 -10008 12128 0c1340,0 3014,186 3944,1228 893,1005 1116,2456 1116,3720 0,931 -111,1935 -446,2791 -335,818 -893,1376 -1674,1748 -893,409 -1972,521 -2940,521l-12128 0 0 0zm61089 3870l0 -8818c0,-1897 -186,-4241 -1041,-5989 -633,-1340 -1638,-2307 -3051,-2865 -1748,-670 -3944,-856 -5804,-856l-12724 0c-1600,0 -3348,112 -4910,484 -1117,298 -2158,744 -3014,1525 -818,782 -1339,1823 -1637,2902 -447,1525 -558,3237 -558,4799l0 8818c0,1451 112,2976 558,4353 335,1078 893,2046 1711,2790 856,819 1935,1339 3051,1637 1562,409 3237,558 4799,558l12724 0c1600,0 3348,-112 4911,-521 1079,-297 2158,-781 2976,-1562 782,-744 1265,-1711 1525,-2753 410,-1414 484,-3051 484,-4502zm-26936 -707l0 -7404c37,-1079 149,-2418 596,-3423 372,-893 1041,-1525 1972,-1860 1041,-409 2418,-484 3534,-484l8929 0c1116,0 2456,75 3534,484 893,298 1563,930 2009,1786 484,1005 558,2381 558,3460l0 7404c0,1004 -74,2306 -483,3236 -372,856 -1005,1414 -1898,1749 -1041,372 -2455,446 -3571,446l-9190 0c-1116,0 -2455,-74 -3497,-484 -855,-297 -1525,-892 -1934,-1748 -447,-930 -521,-2121 -558,-3162l-1 0z"/>
  <path class="fil3" d="M253387 84918l0 4650 11831 0 0 23216 5655 0 0 -23216 11943 0 0 -4650 -29428 0 -1 0zm33930 27866l27754 0 0 -4353 -22099 0 0 -7738 21430 0 0 -3944 -21430 0 0 -7478 22099 0 0 -4353 -27754 0 0 27866zm41148 -27866l-7664 0 12538 13542 -14063 14324 8371 0 10268 -11719 10269 11719 8370 0 -14063 -14324 12538 -13542 -7664 0 -9450 10863 -9450 -10863zm32405 27866l5655 0 0 -8557 13133 0c1786,0 3795,-223 5432,-1005 1339,-632 2269,-1637 2902,-3013 781,-1711 967,-3832 967,-5692 0,-1489 -112,-3126 -521,-4576 -335,-1042 -818,-2046 -1600,-2865 -781,-781 -1748,-1302 -2827,-1600 -1377,-409 -2977,-558 -4428,-558l-18713 0 0 27866 0 0zm5655 -13208l0 -10008 11831 0c1339,0 2976,224 3869,1266 893,967 1079,2418 1079,3683 0,930 -75,1934 -409,2790 -335,781 -893,1377 -1638,1749 -855,409 -1934,520 -2901,520l-11831 0zm27419 13208l27792 0 0 -4353 -22137 0 0 -7738 21429 0 0 -3944 -21429 0 0 -7478 22137 0 0 -4353 -27792 0 0 27866zm65256 -8966l-5915 0c-37,818 -149,1711 -558,2418 -409,744 -1079,1265 -1898,1488 -1004,298 -2232,372 -3274,372l-8705 0c-1079,0 -2344,-74 -3386,-447 -930,-334 -1600,-967 -2009,-1823 -484,-1041 -595,-2418 -595,-3571l0 -7143c0,-1079 37,-2567 446,-3572 372,-855 1042,-1413 1935,-1674 1079,-335 2530,-372 3646,-372l8706 0c1376,0 3162,186 4278,1079 968,744 1303,1935 1377,3088l5915 0c-37,-1748 -335,-3720 -1227,-5246 -782,-1339 -1935,-2269 -3386,-2753 -1823,-632 -3906,-818 -5841,-818l-11124 0c-1972,0 -4502,148 -6399,855 -1377,558 -2381,1488 -2976,2865 -819,1823 -1005,4316 -1005,6288l0 8222c0,1860 149,4129 893,5878 595,1376 1525,2306 2902,2864 1748,782 4055,931 5952,931l12575 0c1897,0 4390,-149 6176,-856 1302,-521 2195,-1414 2716,-2716 595,-1562 744,-3609 781,-5357l0 0zm29577 -18900l-9264 16890 -9784 -16890 -6623 0 12538 19569c260,484 558,1042 558,1637 0,2121 -2939,2307 -4465,2307l-781 0 0 4353 2083 0c1042,0 2158,-37 3200,-261 743,-149 1413,-409 2046,-856 744,-520 1376,-1227 1934,-1934 931,-1228 1786,-2567 2605,-3869l12649 -20946 -6696 0 0 0zm11534 27866l5655 0 0 -8557 13133 0c1786,0 3795,-223 5432,-1005 1339,-632 2269,-1637 2901,-3013 782,-1711 968,-3832 968,-5692 0,-1489 -112,-3126 -521,-4576 -335,-1042 -818,-2046 -1600,-2865 -781,-781 -1748,-1302 -2827,-1600 -1414,-409 -2977,-558 -4428,-558l-18713 0 0 27866 0 0zm5655 -13208l0 -10008 11831 0c1302,0 2976,224 3869,1266 892,967 1078,2418 1078,3683 0,930 -74,1934 -409,2790 -334,781 -892,1377 -1637,1749 -892,409 -1934,520 -2901,520l-11831 0zm58707 4242l-5915 0c-37,818 -186,1711 -558,2418 -446,744 -1079,1265 -1935,1488 -1004,298 -2232,372 -3274,372l-8668 0c-1079,0 -2381,-74 -3423,-447 -893,-334 -1563,-967 -1972,-1823 -521,-1041 -633,-2418 -633,-3571l0 -7143c0,-1079 75,-2567 484,-3572 335,-855 1004,-1413 1897,-1674 1116,-335 2530,-372 3683,-372l8669 0c1414,0 3162,186 4316,1079 930,744 1302,1935 1376,3088l5915 0c-74,-1748 -334,-3720 -1227,-5246 -819,-1339 -1935,-2269 -3386,-2753 -1823,-632 -3943,-818 -5841,-818l-11124 0c-2009,0 -4501,148 -6399,855 -1413,558 -2381,1488 -3013,2865 -782,1823 -968,4316 -1005,6288l0 8222c0,1860 186,4129 931,5878 557,1376 1525,2306 2864,2864 1786,782 4093,931 5953,931l12612 0c1898,0 4390,-149 6176,-856 1265,-521 2195,-1414 2679,-2716 632,-1562 781,-3609 818,-5357z"/>
  <path class="fil4" d="M569929 71613l-321146 0 0 46291 321146 0 0 -46291zm-317686 11798l0 4651 11831 0 0 23215 5655 0 0 -23215 11943 0 0 -4651 -29428 0 -1 0zm33930 27866l27754 0 0 -4353 -22099 0 0 -7738 21430 0 0 -3944 -21430 0 0 -7478 22099 0 0 -4353 -27754 0 0 27866zm41148 -27866l-7664 0 12538 13543 -14063 14323 8371 0 10268 -11719 10269 11719 8371 0 -14064 -14323 12538 -13543 -7664 0 -9450 10864 -9450 -10864zm32405 27866l5655 0 0 -8557 13133 0c1786,0 3795,-223 5432,-1004 1339,-633 2270,-1637 2902,-3014 781,-1711 967,-3832 967,-5692 0,-1488 -112,-3125 -521,-4576 -335,-1041 -818,-2046 -1600,-2864 -781,-782 -1748,-1303 -2827,-1600 -1377,-409 -2977,-558 -4428,-558l-18713 0 0 27866 0 -1zm5655 -13207l0 -10008 11831 0c1339,0 2976,223 3869,1265 893,968 1079,2418 1079,3683 0,931 -75,1935 -409,2791 -335,781 -893,1376 -1637,1748 -856,409 -1935,521 -2902,521l-11831 0zm27419 13207l27792 0 0 -4353 -22137 0 0 -7738 21430 0 0 -3944 -21430 0 0 -7478 22137 0 0 -4353 -27792 0 0 27866zm65256 -8966l-5915 0c-37,819 -149,1712 -558,2418 -409,744 -1079,1266 -1897,1489 -1005,297 -2233,372 -3275,372l-8705 0c-1079,0 -2344,-75 -3386,-447 -930,-335 -1600,-967 -2009,-1823 -483,-1042 -595,-2418 -595,-3571l0 -7144c0,-1078 37,-2567 446,-3571 372,-856 1042,-1414 1935,-1674 1079,-335 2530,-372 3646,-372l8706 0c1376,0 3162,186 4279,1079 967,743 1302,1934 1376,3088l5915 0c-37,-1749 -335,-3721 -1227,-5246 -782,-1339 -1935,-2270 -3386,-2753 -1823,-633 -3906,-819 -5841,-819l-11124 0c-1972,0 -4502,149 -6399,856 -1376,558 -2381,1488 -2976,2865 -819,1823 -1005,4315 -1005,6287l0 8222c0,1860 149,4130 893,5878 595,1377 1525,2307 2902,2865 1748,781 4055,930 5952,930l12575 0c1898,0 4390,-149 6176,-855 1302,-521 2195,-1414 2716,-2716 595,-1563 744,-3609 781,-5358l0 0zm29577 -18900l-9263 16891 -9785 -16891 -6623 0 12538 19570c261,483 558,1041 558,1637 0,2120 -2939,2306 -4465,2306l-781 0 0 4353 2083 0c1042,0 2158,-37 3200,-260 744,-149 1413,-409 2046,-856 744,-521 1376,-1228 1935,-1935 930,-1227 1785,-2567 2604,-3869l12649 -20946 -6696 0 0 0zm11534 27866l5655 0 0 -8557 13133 0c1786,0 3795,-223 5432,-1004 1339,-633 2269,-1637 2902,-3014 781,-1711 967,-3832 967,-5692 0,-1488 -112,-3125 -521,-4576 -335,-1041 -818,-2046 -1600,-2864 -781,-782 -1748,-1303 -2827,-1600 -1414,-409 -2977,-558 -4428,-558l-18713 0 0 27866 0 -1zm5655 -13207l0 -10008 11831 0c1302,0 2976,223 3869,1265 893,968 1079,2418 1079,3683 0,931 -75,1935 -410,2791 -334,781 -892,1376 -1637,1748 -892,409 -1934,521 -2901,521l-11831 0zm58707 4241l-5915 0c-37,819 -186,1712 -558,2418 -446,744 -1079,1266 -1935,1489 -1004,297 -2232,372 -3274,372l-8668 0c-1079,0 -2381,-75 -3423,-447 -893,-335 -1563,-967 -1972,-1823 -521,-1042 -633,-2418 -633,-3571l0 -7144c0,-1078 75,-2567 484,-3571 335,-856 1005,-1414 1897,-1674 1117,-335 2530,-372 3684,-372l8668 0c1414,0 3162,186 4316,1079 930,743 1302,1934 1376,3088l5916 0c-75,-1749 -335,-3721 -1228,-5246 -819,-1339 -1935,-2270 -3386,-2753 -1823,-633 -3943,-819 -5841,-819l-11124 0c-2009,0 -4501,149 -6399,856 -1413,558 -2381,1488 -3013,2865 -782,1823 -968,4315 -1005,6287l0 8222c0,1860 186,4130 931,5878 558,1377 1525,2307 2864,2865 1786,781 4093,930 5953,930l12612 0c1898,0 4390,-149 6176,-855 1265,-521 2195,-1414 2679,-2716 632,-1563 781,-3609 818,-5358zm-500185 -32895c-2230,-2776 -5315,-4623 -9292,-5577 -10112,-3385 -16432,-10725 -18960,-22019 530,-4281 6116,-5545 611,-8930 -3384,-81 -5994,1591 -7910,4975 -5709,10234 -2895,20306 4607,28624 3670,4118 8644,8073 14883,11947 1509,408 2936,-653 4241,-3099 2616,-4083 5424,-4389 8463,-920 -2191,3906 -3703,8244 -4377,12855 -3319,-1296 -6911,-1347 -10814,-232 -10478,2120 -19612,-1061 -27441,-9582 -1712,-3956 2528,-7870 -3914,-7992 -2977,1590 -4445,4363 -4363,8236 163,11703 7625,19042 18308,22508 5219,1672 11498,2650 18838,2854 1508,-407 2242,-1998 2120,-4811 238,-4794 2517,-6470 6873,-4989 63,4692 985,9177 2619,13303 -3489,536 -6664,2277 -9451,5223 -8033,7095 -17534,8890 -28584,5424 -3425,-2569 -1712,-8074 -7380,-4975 -1794,2895 -1672,5994 326,9338 5994,10030 16147,12640 27116,10316 5382,-1142 11295,-3466 17737,-6932 1142,-1101 938,-2855 -571,-5220 -2217,-4276 -1051,-6859 3460,-7790 2343,3928 5384,7393 8950,10223 -2790,2232 -4644,5322 -5601,9270 -3384,10112 -10724,16432 -22018,18961 -4281,-490 -5546,-6116 -8889,-571 -82,3343 1549,5994 4974,7869 10194,5709 20265,2896 28624,-4607 4078,-3670 8033,-8644 11907,-14883 407,-1508 -612,-2935 -3099,-4240 -4076,-2572 -4388,-5414 -899,-8449 3900,2184 8230,3691 12832,4365 -1294,3320 -1345,6950 -231,10852 2121,10438 -1060,19612 -9582,27401 -3955,1712 -7829,-2488 -7992,3955 1590,2936 4363,4403 8237,4363 11702,-163 19042,-7666 22508,-18308 1712,-5220 2650,-11540 2854,-18838 -367,-1550 -1998,-2243 -4811,-2121 -4794,-237 -6470,-2554 -4990,-6911 4692,-63 9178,-984 13304,-2619 536,3525 2277,6663 5223,9489 7095,7992 8889,17534 5423,28543 -2569,3466 -8073,1753 -4974,7421 2895,1754 5994,1631 9337,-367 10031,-5953 12640,-16106 10316,-27075 -1142,-5382 -3425,-11294 -6932,-17778 -1101,-1101 -2854,-937 -5219,571 -4281,2220 -6866,1048 -7756,-3477 3221,-1926 6129,-4321 8631,-7090l3307 0c2011,1785 4517,3040 7521,3799 10112,3384 16473,10724 18960,22018 -489,4281 -6116,5505 -571,8889 3344,82 5995,-1590 7911,-4974 5708,-10194 2854,-20306 -4648,-28625 -334,-370 -677,-739 -1031,-1107l24208 0c-4167,13951 -11794,26452 -21839,36534 -15775,15775 -37576,25522 -61684,25522 -24071,0 -45873,-9747 -61647,-25522 -15775,-15812 -25559,-37613 -25559,-61684 0,-24071 9784,-45873 25559,-61647 15774,-15775 37576,-25559 61647,-25559 24108,0 45909,9784 61684,25559l0 0c10975,11012 19086,24927 22955,40515l-3484 0c852,-2402 466,-4983 -1156,-7698 -5954,-10031 -16106,-12641 -27075,-10316 -5382,1141 -11295,3466 -17778,6932 -1101,1101 -897,2854 571,5219 1316,2561 1453,4512 397,5863l-5087 0c-2136,-3131 -4734,-5922 -7695,-8275 2777,-2230 4662,-5314 5616,-9290 3385,-10113 10724,-16433 22019,-18961 4281,530 5545,6116 8889,611 81,-3384 -1590,-5993 -4975,-7910 -10194,-5708 -20306,-2895 -28624,4608 -4077,3669 -8074,8644 -11906,14883 -408,1508 611,2935 3099,4240 4081,2616 4350,5424 880,8462 -3896,-2185 -8222,-3695 -12819,-4372 1260,-3320 1351,-6913 195,-10817 -2120,-10479 1101,-19613 9583,-27442 3955,-1712 7869,2528 8032,-3955 -1631,-2936 -4363,-4404 -8277,-4322 -11662,122 -19002,7625 -22467,18267 -1713,5260 -2650,11539 -2895,18879 407,1508 1998,2202 4811,2120 4834,198 6510,2514 4992,6873 -4693,63 -9179,986 -13306,2620 -536,-3489 -2276,-6666 -5223,-9493 -7055,-7992 -8848,-17492 -5424,-28543 2610,-3425 8074,-1753 4975,-7421 -2855,-1753 -5994,-1631 -9338,367 -10030,5994 -12640,16147 -10315,27116 1141,5382 3466,11295 6931,17737 1142,1142 2855,938 5260,-571 4276,-2217 6860,-1051 7753,3461 -3920,2338 -7378,5369 -10204,8926zm76431 2202c7431,-5298 16090,-6429 25919,-3335 1227,923 1804,2203 2290,3335l-28209 0zm-47025 -71618c25633,0 48812,10380 65590,27159 12017,12017 20760,27345 24741,44459l64366 0 -3 -1456 323936 0 0 49194 -323936 0 0 -1456 -65368 0c-4352,15477 -12649,29354 -23736,40440 -16779,16780 -39957,27159 -65590,27159 -25597,0 -48775,-10379 -65554,-27159 -16816,-16779 -27196,-39957 -27196,-65590 0,-25597 10380,-48775 27196,-65591 16779,-16779 39957,-27159 65554,-27159l0 0z"/>
  <path class="fil5" d="M283601 135921l-1324 6620c-824,-383 -1656,-655 -2494,-817 -838,-162 -1523,-243 -2053,-243 -2265,0 -4045,736 -5340,2207 -1147,1295 -1721,2825 -1721,4590 0,1324 434,2347 1302,3067 868,721 2023,1082 3465,1082 824,0 1692,-111 2604,-331 912,-221 1794,-508 2648,-861l-1368 6664c-1413,441 -2788,743 -4127,905 -1339,162 -2729,242 -4170,242 -4973,0 -8474,-1294 -10504,-3883 -1236,-1559 -1854,-3457 -1854,-5693 0,-3502 1192,-6606 3575,-9313 3119,-3530 7620,-5295 13505,-5295 1589,0 2979,88 4170,264 1192,177 2421,442 3686,795zm55090 7988c0,1294 -191,2751 -574,4369l-308 1368 -15447 0c-30,206 -44,383 -44,530 0,853 265,1530 794,2030 765,736 2060,1103 3884,1103 1265,0 2714,-155 4347,-463 1633,-309 3097,-684 4391,-1125l-1235 6001c-1677,442 -3443,773 -5297,994 -1853,220 -3574,330 -5163,330 -1795,0 -3325,-132 -4590,-397 -1913,-411 -3501,-1133 -4766,-2162 -913,-736 -1619,-1604 -2119,-2604 -618,-1206 -927,-2589 -927,-4149 0,-3471 1148,-6620 3443,-9444 2942,-3619 7076,-5428 12401,-5428 3384,0 6047,735 7989,2206 1294,1000 2206,2221 2736,3663 323,942 485,2001 485,3178zm-9400 -839c0,-1000 -228,-1699 -684,-2096 -456,-397 -979,-596 -1567,-596 -677,0 -1265,191 -1765,574 -912,677 -1530,1854 -1854,3530l-88 442 5737 0 88 -486 133 -1368zm68684 574c0,4590 -1221,8304 -3663,11144 -2442,2839 -5502,4258 -9180,4258 -1265,0 -2368,-191 -3310,-573 -1383,-559 -2398,-1530 -3045,-2913l-2604 12622 -11122 0 6708 -32791 10328 0 -795 3928 177 0c1030,-1501 2273,-2619 3729,-3354 1457,-736 3053,-1103 4788,-1103 1884,0 3458,411 4723,1235 2177,1442 3266,3957 3266,7547zm-12004 1280c0,-1030 -265,-1751 -795,-2163 -353,-264 -780,-397 -1280,-397 -588,0 -1140,199 -1655,596 -515,397 -978,1052 -1390,1964 -647,1471 -971,3030 -971,4678 0,941 235,1633 706,2074 353,324 795,486 1324,486 589,0 1104,-162 1545,-486 618,-441 1133,-1133 1545,-2074 264,-648 492,-1412 684,-2295 191,-882 287,-1677 287,-2383zm68242 -4943c0,1383 -426,2619 -1280,3707 -971,1265 -2412,2133 -4325,2604 1353,206 2442,721 3266,1545 824,823 1236,1868 1236,3133 0,1942 -809,3634 -2428,5075 -1853,1648 -4310,2472 -7370,2472l-17080 0 4722 -23126 16727 0c2178,0 3810,383 4899,1147 1089,765 1633,1913 1633,3443zm-10151 1986c0,-530 -205,-934 -617,-1214 -412,-279 -1074,-419 -1987,-419l-1368 0 -838 4016 1368 0c1324,0 2280,-309 2869,-926 382,-412 573,-898 573,-1457zm-1368 8915c0,-824 -279,-1346 -838,-1567 -559,-220 -1207,-331 -1942,-331l-1589 0 -927 4590 1589 0c1353,0 2339,-294 2957,-882 500,-471 750,-1074 750,-1810zm71906 -15491l-4722 23126 -10151 0 2207 -10813 -221 0 -7282 10813 -10989 0 4722 -23126 10151 0 -2207 10813 221 0 7370 -10813 10901 0zm53326 530l-1324 6620c-824,-383 -1656,-655 -2494,-817 -838,-162 -1523,-243 -2052,-243 -2266,0 -4046,736 -5340,2207 -1148,1295 -1722,2825 -1722,4590 0,1324 434,2347 1302,3067 868,721 2023,1082 3465,1082 824,0 1692,-111 2604,-331 912,-221 1794,-508 2647,-861l-1368 6664c-1412,441 -2787,743 -4126,905 -1339,162 -2729,242 -4171,242 -4972,0 -8473,-1294 -10504,-3883 -1235,-1559 -1853,-3457 -1853,-5693 0,-3502 1191,-6606 3575,-9313 3119,-3530 7620,-5295 13505,-5295 1589,0 2979,88 4170,264 1192,177 2420,442 3686,795z"/>
  <path class="fil6 str0" d="M282120 133836l-1324 6620c-824,-382 -1655,-654 -2494,-816 -838,-162 -1522,-243 -2052,-243 -2265,0 -4045,735 -5340,2206 -1147,1295 -1721,2825 -1721,4590 0,1324 434,2347 1302,3068 868,721 2023,1081 3465,1081 823,0 1691,-110 2603,-331 912,-221 1795,-507 2648,-861l-1368 6665c-1412,441 -2788,742 -4127,904 -1338,162 -2728,243 -4170,243 -4972,0 -8473,-1295 -10504,-3884 -1236,-1559 -1854,-3457 -1854,-5693 0,-3501 1192,-6605 3576,-9312 3118,-3531 7620,-5296 13504,-5296 1589,0 2980,88 4171,265 1192,176 2420,441 3685,794zm55091 7988c0,1295 -191,2751 -574,4369l-309 1369 -15447 0c-29,206 -44,382 -44,529 0,853 265,1530 795,2030 765,736 2059,1104 3883,1104 1266,0 2715,-155 4348,-464 1633,-308 3096,-684 4391,-1125l-1236 6002c-1677,441 -3442,772 -5296,993 -1853,220 -3575,331 -5164,331 -1794,0 -3324,-132 -4590,-397 -1912,-412 -3500,-1133 -4766,-2163 -912,-735 -1618,-1603 -2118,-2604 -618,-1206 -927,-2589 -927,-4148 0,-3472 1148,-6620 3442,-9445 2942,-3619 7076,-5428 12402,-5428 3383,0 6046,735 7988,2207 1295,1000 2207,2221 2736,3663 324,941 486,2000 486,3177zm-9401 -838c0,-1001 -228,-1699 -684,-2097 -456,-397 -978,-596 -1567,-596 -676,0 -1265,192 -1765,574 -912,677 -1530,1854 -1853,3531l-89 441 5738 0 88 -485 132 -1368zm68685 573c0,4590 -1221,8305 -3664,11144 -2442,2839 -5502,4259 -9179,4259 -1266,0 -2369,-191 -3311,-573 -1382,-560 -2397,-1531 -3045,-2914l-2603 12623 -11122 0 6708 -32792 10327 0 -794 3928 176 0c1030,-1500 2273,-2618 3730,-3354 1456,-735 3052,-1103 4788,-1103 1883,0 3457,412 4723,1236 2177,1441 3266,3957 3266,7546zm-12005 1280c0,-1030 -265,-1751 -794,-2163 -353,-264 -780,-396 -1280,-396 -589,0 -1140,198 -1655,596 -515,397 -979,1051 -1390,1963 -648,1471 -972,3031 -972,4678 0,942 236,1633 707,2075 353,323 794,485 1324,485 588,0 1103,-162 1544,-485 618,-442 1133,-1133 1545,-2075 265,-647 493,-1412 684,-2294 191,-883 287,-1678 287,-2384zm68243 -4943c0,1383 -427,2619 -1280,3707 -971,1266 -2413,2134 -4325,2604 1353,206 2442,721 3265,1545 824,824 1236,1869 1236,3134 0,1941 -809,3633 -2427,5075 -1854,1648 -4310,2472 -7371,2472l-17079 0 4722 -23127 16727 0c2177,0 3810,383 4898,1148 1089,765 1634,1912 1634,3442zm-10151 1986c0,-529 -206,-934 -618,-1213 -412,-280 -1074,-420 -1986,-420l-1368 0 -839 4016 1368 0c1325,0 2281,-309 2869,-926 383,-412 574,-898 574,-1457zm-1368 8915c0,-823 -280,-1346 -839,-1566 -559,-221 -1206,-331 -1942,-331l-1588 0 -927 4589 1589 0c1353,0 2339,-294 2957,-882 500,-471 750,-1074 750,-1810zm71905 -15491l-4722 23127 -10151 0 2207 -10813 -220 0 -7283 10813 -10989 0 4722 -23127 10151 0 -2206 10813 220 0 7370 -10813 10901 0zm53326 530l-1324 6620c-824,-382 -1655,-654 -2494,-816 -838,-162 -1522,-243 -2052,-243 -2265,0 -4045,735 -5340,2206 -1148,1295 -1721,2825 -1721,4590 0,1324 434,2347 1302,3068 868,721 2023,1081 3465,1081 823,0 1691,-110 2603,-331 912,-221 1795,-507 2648,-861l-1368 6665c-1412,441 -2788,742 -4127,904 -1338,162 -2728,243 -4170,243 -4972,0 -8474,-1295 -10504,-3884 -1236,-1559 -1854,-3457 -1854,-5693 0,-3501 1192,-6605 3575,-9312 3119,-3531 7621,-5296 13505,-5296 1589,0 2979,88 4171,265 1192,176 2420,441 3685,794z"/>
 </g>
</svg>
